# Blender v2.82 (sub 7) OBJ File: 'untitled.blend'
# www.blender.org
mtllib untitled.mtl
o cube
v -0.049010 0.252991 0.093750
v 0.056644 0.026414 0.093750
v 0.064278 0.305818 0.093750
v 0.169933 0.079241 0.093750
v 0.064278 0.305818 -0.093750
v 0.169933 0.079241 -0.093750
v -0.049010 0.252991 -0.093750
v 0.056644 0.026414 -0.093750
v 0.090692 0.249174 0.062500
v 0.143519 0.135885 0.062500
v 0.600490 0.486896 0.062500
v 0.653317 0.373608 0.062500
v 0.600490 0.486896 -0.062500
v 0.653317 0.373608 -0.062500
v 0.090692 0.249174 -0.062500
v 0.143519 0.135885 -0.062500
v -0.192529 0.117105 0.062500
v -0.086875 -0.109472 0.062500
v 0.090692 0.249174 0.062500
v 0.196346 0.022597 0.062500
v 0.090692 0.249174 -0.062500
v 0.196346 0.022597 -0.062500
v -0.192529 0.117105 -0.062500
v -0.086875 -0.109472 -0.062500
v -0.168277 0.043438 0.063125
v -0.317911 -0.367677 0.063125
v 0.007916 -0.020690 0.063125
v -0.141718 -0.431806 0.063125
v 0.007916 -0.020690 -0.063125
v -0.141718 -0.431806 -0.063125
v -0.168277 0.043438 -0.063125
v -0.317911 -0.367677 -0.063125
v 0.434374 0.547358 0.000062
v 0.487201 0.434069 0.000062
v 0.547663 0.600185 0.000062
v 0.600490 0.486896 0.000062
v 0.547663 0.600185 0.000000
v 0.600490 0.486896 0.000000
v 0.434374 0.547358 0.000000
v 0.487201 0.434069 0.000000
v -0.143519 -0.135885 0.000688
v -0.011451 -0.419106 0.000688
v 0.139702 -0.003817 0.000687
v 0.271770 -0.287038 0.000687
v 0.139702 -0.003817 0.000625
v 0.271770 -0.287038 0.000625
v -0.143519 -0.135885 0.000625
v -0.011451 -0.419106 0.000625
v -0.445520 0.068095 0.000625
v -0.313452 -0.215126 0.000625
v -0.218943 0.173750 0.000625
v -0.086875 -0.109472 0.000625
v -0.218943 0.173750 0.000000
v -0.086875 -0.109472 -0.000000
v -0.445520 0.068095 0.000000
v -0.313452 -0.215126 -0.000000
v 0.566442 0.264136 0.031250
v 0.592856 0.207492 0.031250
v 0.623087 0.290550 0.031250
v 0.649500 0.233906 0.031250
v 0.623087 0.290550 -0.031250
v 0.649500 0.233906 -0.031250
v 0.566442 0.264136 -0.031250
v 0.592856 0.207492 -0.031250
v -0.275587 0.147336 0.093750
v -0.196346 -0.022597 0.093750
v -0.049010 0.252991 0.093750
v 0.030231 0.083058 0.093750
v -0.049010 0.252991 -0.093750
v 0.030231 0.083058 -0.093750
v -0.275587 0.147336 -0.093750
v -0.196346 -0.022597 -0.093750
v 0.117105 0.192529 0.093750
v 0.196346 0.022597 0.093750
v 0.513615 0.377425 0.093750
v 0.592856 0.207492 0.093750
v 0.513615 0.377425 -0.093750
v 0.592856 0.207492 -0.093750
v 0.117105 0.192529 -0.093750
v 0.196346 0.022597 -0.093750
vt 0.078109 0.859375
vt 0.078109 0.796953
vt 0.109219 0.859375
vt 0.109219 0.796953
vt 0.031250 0.859375
vt 0.031250 0.797156
vt 0.062094 0.859375
vt 0.062094 0.797156
vt 0.062500 0.921891
vt 0.062500 0.890859
vt 0.109125 0.921891
vt 0.109125 0.890859
vt 0.000000 0.921891
vt 0.000000 0.890797
vt 0.046703 0.921891
vt 0.046703 0.890797
vt 0.062500 1.000000
vt 0.062500 0.937563
vt 0.109234 1.000000
vt 0.109234 0.937563
vt 0.000000 1.000000
vt 0.000000 0.937563
vt 0.046750 1.000000
vt 0.046750 0.937563
vt 0.031250 0.593750
vt 0.031250 0.562688
vt 0.171844 0.593750
vt 0.171844 0.562688
vt 0.031250 0.640625
vt 0.031250 0.609516
vt 0.171828 0.640625
vt 0.171828 0.609516
vt 0.093703 0.546938
vt 0.093703 0.406437
vt 0.124891 0.546938
vt 0.124891 0.406437
vt 0.140625 0.546891
vt 0.140625 0.406406
vt 0.171875 0.546891
vt 0.171875 0.406406
vt 0.031234 0.687547
vt 0.031234 0.656359
vt 0.062406 0.687547
vt 0.062406 0.656359
vt 0.078062 0.687547
vt 0.078062 0.656406
vt 0.109203 0.687547
vt 0.109203 0.656406
vt 0.125000 0.796875
vt 0.125000 0.734563
vt 0.203000 0.796875
vt 0.203000 0.734563
vt 0.125000 0.875000
vt 0.125000 0.812688
vt 0.203000 0.875000
vt 0.203000 0.812688
vt 0.031250 0.781250
vt 0.031250 0.703188
vt 0.062438 0.781250
vt 0.062438 0.703188
vt 0.078125 0.781250
vt 0.078125 0.703188
vt 0.109312 0.781250
vt 0.109312 0.703188
vt 0.171875 0.718750
vt 0.171875 0.656375
vt 0.203063 0.718750
vt 0.203063 0.656375
vt 0.125000 0.718750
vt 0.125000 0.656375
vt 0.156062 0.718750
vt 0.156062 0.656375
vt 0.484188 0.765672
vt 0.374953 0.765672
vt 0.484188 0.718891
vt 0.374953 0.718891
vt 0.374953 0.781359
vt 0.484250 0.781359
vt 0.374953 0.828156
vt 0.484250 0.828156
vt 0.624984 0.781359
vt 0.624984 0.828156
vt 0.593734 0.781359
vt 0.593734 0.828156
vt 0.593750 0.765625
vt 0.593750 0.718859
vt 0.624937 0.765625
vt 0.624937 0.718859
vt 0.546844 0.828156
vt 0.546844 0.718859
vt 0.578094 0.828156
vt 0.578094 0.718859
vt 0.531203 0.718859
vt 0.531203 0.828156
vt 0.499953 0.718859
vt 0.499953 0.828156
vt 0.250000 0.703125
vt 0.250000 0.671953
vt 0.281188 0.703125
vt 0.281188 0.671953
vt 0.250000 0.750016
vt 0.250000 0.718781
vt 0.281188 0.750016
vt 0.281188 0.718781
vt 0.847640 0.179734
vt 0.847640 0.054781
vt 0.847640 0.179734
vt 0.847640 0.054781
vt 0.847640 0.179734
vt 0.847640 0.054781
vt 0.847640 0.179734
vt 0.847640 0.054781
vt 0.847640 0.117218
vt 0.847640 0.054781
vt 0.847640 0.117218
vt 0.847640 0.054781
vt 0.847640 0.117218
vt 0.847640 0.117218
vt 0.734344 0.828156
vt 0.734344 0.750094
vt 0.812406 0.828156
vt 0.812406 0.750094
vt 0.640625 0.828156
vt 0.640625 0.750141
vt 0.718641 0.828156
vt 0.718641 0.750141
vt 0.847640 0.429734
vt 0.847640 0.054781
vt 0.847640 0.429734
vt 0.847640 0.054781
vt 0.847640 0.429734
vt 0.847640 0.054781
vt 0.847640 0.429734
vt 0.847640 0.054781
vt 0.847640 0.367218
vt 0.847640 0.054781
vt 0.847640 0.367218
vt 0.847640 0.054781
vt 0.847640 0.367218
vt 0.847640 0.367218
vt 0.250000 0.515625
vt 0.250000 0.437594
vt 0.312391 0.515625
vt 0.312391 0.437594
vt 0.187469 0.515688
vt 0.187469 0.437797
vt 0.249719 0.515688
vt 0.249719 0.437797
vt 0.847640 0.429734
vt 0.847640 0.054781
vt 0.847640 0.429734
vt 0.847640 0.054781
vt 0.847640 0.429734
vt 0.847640 0.054781
vt 0.847640 0.429734
vt 0.847640 0.054781
vt 0.125000 0.347672
vt 0.125000 0.035187
vt 0.140625 0.347672
vt 0.140625 0.035187
vt 0.847640 0.367218
vt 0.847640 0.367218
vt 0.218734 0.828125
vt 0.218734 0.812516
vt 0.234359 0.828125
vt 0.234359 0.812516
vt 0.218734 0.781266
vt 0.218734 0.765641
vt 0.234359 0.781266
vt 0.234359 0.765641
vt 0.218734 0.765641
vt 0.234359 0.781266
vt 0.234359 0.765641
vt 0.218734 0.765625
vt 0.218734 0.750063
vt 0.234297 0.765625
vt 0.234297 0.750063
vt 0.218734 0.828125
vt 0.218734 0.812516
vt 0.234359 0.828125
vt 0.234359 0.812516
vt 0.187484 0.640625
vt 0.187484 0.593750
vt 0.249953 0.640625
vt 0.249953 0.593750
vt 0.187484 0.578141
vt 0.187484 0.531281
vt 0.249953 0.578141
vt 0.249953 0.531281
vt 0.265594 0.625047
vt 0.265594 0.562594
vt 0.312375 0.625047
vt 0.312375 0.562594
vt 0.328109 0.625000
vt 0.328109 0.562531
vt 0.374984 0.625000
vt 0.374984 0.562531
vt 0.031250 0.546891
vt 0.031250 0.500016
vt 0.078109 0.546891
vt 0.078109 0.500016
vt 0.031188 0.484422
vt 0.031188 0.437562
vt 0.078047 0.484422
vt 0.078047 0.437562
vt 0.124969 1.000000
vt 0.124969 0.953281
vt 0.234125 1.000000
vt 0.234125 0.953281
vt 0.125000 0.937500
vt 0.125000 0.890813
vt 0.234062 0.937500
vt 0.234062 0.890813
vt 0.250000 1.000000
vt 0.250000 0.890813
vt 0.296688 1.000000
vt 0.296688 0.890813
vt 0.250000 0.875000
vt 0.250000 0.765750
vt 0.296750 0.875000
vt 0.296750 0.765750
vt 0.375000 1.000000
vt 0.375000 0.953188
vt 0.421750 1.000000
vt 0.421750 0.953188
vt 0.312484 1.000000
vt 0.312484 0.953188
vt 0.359234 1.000000
vt 0.359234 0.953188
vt 0.000000 1.000000
vt 0.000000 0.984375
vt 0.015625 1.000000
vt 0.015625 0.984375
vn 0.0000 -0.0000 1.0000
vn 0.0000 0.0000 -1.0000
vn -0.4226 0.9063 0.0000
vn 0.4226 -0.9063 -0.0000
vn -0.9063 -0.4226 0.0000
vn 0.9063 0.4226 0.0000
vn 0.3420 0.9397 0.0000
vn -0.3420 -0.9397 0.0000
vn -0.9397 0.3420 0.0000
vn 0.9397 -0.3420 0.0000
g cube_cube_0
usemtl 0
s 1
f 1/1/1 2/2/1 3/3/1
f 2/2/1 4/4/1 3/3/1
f 5/5/2 6/6/2 7/7/2
f 6/6/2 8/8/2 7/7/2
f 5/9/3 7/10/3 3/11/3
f 7/10/3 1/12/3 3/11/3
f 8/13/4 6/14/4 2/15/4
f 6/14/4 4/16/4 2/15/4
f 7/17/5 8/18/5 1/19/5
f 8/18/5 2/20/5 1/19/5
f 3/21/6 4/22/6 5/23/6
f 4/22/6 6/24/6 5/23/6
f 9/25/1 10/26/1 11/27/1
f 10/26/1 12/28/1 11/27/1
f 13/29/2 14/30/2 15/31/2
f 14/30/2 16/32/2 15/31/2
f 13/33/3 15/34/3 11/35/3
f 15/34/3 9/36/3 11/35/3
f 16/37/4 14/38/4 10/39/4
f 14/38/4 12/40/4 10/39/4
f 15/41/5 16/42/5 9/43/5
f 16/42/5 10/44/5 9/43/5
f 11/45/6 12/46/6 13/47/6
f 12/46/6 14/48/6 13/47/6
f 17/49/1 18/50/1 19/51/1
f 18/50/1 20/52/1 19/51/1
f 21/53/2 22/54/2 23/55/2
f 22/54/2 24/56/2 23/55/2
f 21/57/3 23/58/3 19/59/3
f 23/58/3 17/60/3 19/59/3
f 24/61/4 22/62/4 18/63/4
f 22/62/4 20/64/4 18/63/4
f 23/65/5 24/66/5 17/67/5
f 24/66/5 18/68/5 17/67/5
f 19/69/6 20/70/6 21/71/6
f 20/70/6 22/72/6 21/71/6
f 25/73/1 26/74/1 27/75/1
f 26/74/1 28/76/1 27/75/1
f 29/77/2 30/78/2 31/79/2
f 30/78/2 32/80/2 31/79/2
f 29/81/7 31/82/7 27/83/7
f 31/82/7 25/84/7 27/83/7
f 32/85/8 30/86/8 26/87/8
f 30/86/8 28/88/8 26/87/8
f 31/89/9 32/90/9 25/91/9
f 32/90/9 26/92/9 25/91/9
f 27/93/10 28/94/10 29/95/10
f 28/94/10 30/96/10 29/95/10
f 33/97/1 34/98/1 35/99/1
f 34/98/1 36/100/1 35/99/1
f 37/101/2 38/102/2 39/103/2
f 38/102/2 40/104/2 39/103/2
f 37/105/3 39/106/3 35/107/3
f 39/106/3 33/108/3 35/107/3
f 40/109/4 38/110/4 34/111/4
f 38/110/4 36/112/4 34/111/4
f 39/113/5 40/114/5 33/115/5
f 40/114/5 34/116/5 33/115/5
f 35/117/6 36/112/6 37/118/6
f 36/112/6 38/110/6 37/118/6
f 41/119/1 42/120/1 43/121/1
f 42/120/1 44/122/1 43/121/1
f 45/123/2 46/124/2 47/125/2
f 46/124/2 48/126/2 47/125/2
f 45/127/3 47/128/3 43/129/3
f 47/128/3 41/130/3 43/129/3
f 48/131/4 46/132/4 42/133/4
f 46/132/4 44/134/4 42/133/4
f 47/135/5 48/136/5 41/137/5
f 48/136/5 42/138/5 41/137/5
f 43/139/6 44/134/6 45/140/6
f 44/134/6 46/132/6 45/140/6
f 49/141/1 50/142/1 51/143/1
f 50/142/1 52/144/1 51/143/1
f 53/145/2 54/146/2 55/147/2
f 54/146/2 56/148/2 55/147/2
f 53/149/3 55/150/3 51/151/3
f 55/150/3 49/152/3 51/151/3
f 56/153/4 54/154/4 50/155/4
f 54/154/4 52/156/4 50/155/4
f 55/157/5 56/158/5 49/159/5
f 56/158/5 50/160/5 49/159/5
f 51/161/6 52/156/6 53/162/6
f 52/156/6 54/154/6 53/162/6
f 57/163/1 58/164/1 59/165/1
f 58/164/1 60/166/1 59/165/1
f 61/167/2 62/168/2 63/169/2
f 62/168/2 64/170/2 63/169/2
f 61/167/3 63/171/3 59/172/3
f 63/171/3 57/173/3 59/172/3
f 64/174/4 62/175/4 58/176/4
f 62/175/4 60/177/4 58/176/4
f 59/178/6 60/179/6 61/180/6
f 60/179/6 62/181/6 61/180/6
f 65/182/1 66/183/1 67/184/1
f 66/183/1 68/185/1 67/184/1
f 69/186/2 70/187/2 71/188/2
f 70/187/2 72/189/2 71/188/2
f 69/190/3 71/191/3 67/192/3
f 71/191/3 65/193/3 67/192/3
f 72/194/4 70/195/4 66/196/4
f 70/195/4 68/197/4 66/196/4
f 71/198/5 72/199/5 65/200/5
f 72/199/5 66/201/5 65/200/5
f 67/202/6 68/203/6 69/204/6
f 68/203/6 70/205/6 69/204/6
f 73/206/1 74/207/1 75/208/1
f 74/207/1 76/209/1 75/208/1
f 77/210/2 78/211/2 79/212/2
f 78/211/2 80/213/2 79/212/2
f 77/214/3 79/215/3 75/216/3
f 79/215/3 73/217/3 75/216/3
f 80/218/4 78/219/4 74/220/4
f 78/219/4 76/221/4 74/220/4
f 79/222/5 80/223/5 73/224/5
f 80/223/5 74/225/5 73/224/5
f 75/226/6 76/227/6 77/228/6
f 76/227/6 78/229/6 77/228/6
g cube_cube
usemtl (null)
f 63/230/5 64/231/5 57/232/5
f 64/231/5 58/233/5 57/232/5
