# Blender v2.81 (sub 16) OBJ File: ''
# www.blender.org
mtllib s4_grenade.mtl
o cube
v -0.270601 0.156305 0.031250
v -0.216475 0.125055 0.031250
v -0.270601 0.156305 -0.031250
v -0.216475 0.125055 -0.031250
v -0.270633 0.156250 -0.031250
v -0.216506 0.125000 -0.031250
v -0.270633 0.156250 0.031250
v -0.216506 0.125000 0.031250
vt 0.718750 0.062500
vt 0.718750 0.031250
vt 0.750000 0.062500
vt 0.750000 0.031250
vt 0.250000 0.781250
vt 0.250000 0.750000
vt 0.281250 0.781250
vt 0.281250 0.750000
vn 0.5000 0.8660 0.0000
vn -0.5000 -0.8660 0.0000
usemtl m_0
s 1
f 1/1/1 2/2/1 3/3/1
f 2/2/1 4/4/1 3/3/1
f 5/5/2 6/6/2 7/7/2
f 6/6/2 8/8/2 7/7/2
o cube.000
v -0.227998 0.167719 0.031250
v -0.227945 0.167688 0.031250
v -0.227998 0.167719 -0.156250
v -0.227945 0.167688 -0.156250
v -0.259248 0.113593 -0.156250
v -0.259195 0.113562 -0.156250
v -0.259248 0.113593 0.031250
v -0.259195 0.113562 0.031250
vt 0.000000 1.000000
vt 0.000000 1.000000
vt 0.187500 1.000000
vt 0.187500 1.000000
vt 0.000000 1.000000
vt 0.000000 1.000000
vt 0.187500 1.000000
vt 0.187500 1.000000
vt 0.281250 0.687500
vt 0.281250 0.593750
vt 0.312500 0.687500
vt 0.312500 0.593750
vt 0.187500 0.812500
vt 0.187500 0.781250
vt 0.218750 0.812500
vt 0.218750 0.781250
vt 0.000000 1.000000
vt 0.000000 1.000000
vt 0.062500 1.000000
vt 0.062500 1.000000
vt 0.000000 1.000000
vt 0.000000 1.000000
vt 0.062500 1.000000
vt 0.062500 1.000000
vn 0.5000 0.8660 0.0000
vn -0.5000 -0.8660 0.0000
vn -0.5003 -0.8659 0.0000
vn -0.8660 0.5000 0.0000
vn 0.8660 -0.5000 0.0000
vn 0.0000 0.0000 1.0000
vn 0.0000 0.0000 -1.0000
usemtl m_0
s 1
f 9/9/3 10/10/3 11/11/3
f 10/10/3 12/12/3 11/11/3
f 13/13/4 14/14/4 15/15/5
f 14/14/4 16/16/5 15/15/5
f 13/17/6 15/18/6 11/19/6
f 15/18/6 9/20/6 11/19/6
f 16/21/7 14/22/7 10/23/7
f 14/22/7 12/24/7 10/23/7
f 15/25/8 16/26/8 9/27/8
f 16/26/8 10/28/8 9/27/8
f 11/29/9 12/30/9 13/31/9
f 12/30/9 14/32/9 13/31/9
o cube.001
v -0.259195 0.113562 -0.156187
v 0.119691 -0.105188 -0.156188
v -0.227945 0.167688 -0.156187
v 0.150941 -0.051062 -0.156188
v -0.227945 0.167688 -0.156250
v 0.150941 -0.051062 -0.156250
v -0.259195 0.113562 -0.156250
v 0.119691 -0.105188 -0.156250
vt 0.250000 0.812500
vt 0.250000 0.593750
vt 0.281250 0.812500
vt 0.281250 0.593750
vt 0.250000 0.812500
vt 0.250000 0.593750
vt 0.281250 0.812500
vt 0.281250 0.593750
vn 0.0000 -0.0000 1.0000
vn 0.0000 0.0000 -1.0000
usemtl m_0
s 1
f 17/33/10 18/34/10 19/35/10
f 18/34/10 20/36/10 19/35/10
f 21/37/11 22/38/11 23/39/11
f 22/38/11 24/40/11 23/39/11
o cube.002
v -0.154006 0.233253 0.125000
v -0.045753 0.170753 0.125000
v -0.154006 0.233253 -0.125000
v -0.045753 0.170753 -0.125000
v -0.279006 0.016747 -0.125000
v -0.170753 -0.045753 -0.125000
v -0.279006 0.016747 0.125000
v -0.170753 -0.045753 0.125000
vt 0.000000 0.875000
vt 0.000000 0.812500
vt 0.125000 0.875000
vt 0.125000 0.812500
vt 0.000000 0.875000
vt 0.000000 0.812500
vt 0.125000 0.875000
vt 0.125000 0.812500
vt 0.000000 1.000000
vt 0.125000 1.000000
vt 0.250000 1.000000
vt 0.250000 0.875000
vt 0.375000 1.000000
vt 0.375000 0.875000
vt 0.250000 0.875000
vt 0.250000 0.812500
vt 0.250000 0.875000
vt 0.250000 0.812500
vn 0.5000 0.8660 0.0000
vn -0.5000 -0.8660 -0.0000
vn -0.8660 0.5000 0.0000
vn 0.8660 -0.5000 -0.0000
vn 0.0000 -0.0000 1.0000
vn 0.0000 0.0000 -1.0000
usemtl m_0
s 1
f 25/41/12 26/42/12 27/43/12
f 26/42/12 28/44/12 27/43/12
f 29/45/13 30/46/13 31/47/13
f 30/46/13 32/48/13 31/47/13
f 29/45/14 31/49/14 27/43/14
f 31/49/14 25/50/14 27/43/14
f 32/51/15 30/52/15 26/53/15
f 30/52/15 28/54/15 26/53/15
f 31/47/16 32/48/16 25/55/16
f 32/48/16 26/56/16 25/55/16
f 27/43/17 28/44/17 29/57/17
f 28/44/17 30/58/17 29/57/17
o cube.003
v 0.387260 -0.079247 0.125000
v 0.495513 -0.141747 0.125000
v 0.387260 -0.079247 -0.125000
v 0.495513 -0.141747 -0.125000
v 0.262260 -0.295753 -0.125000
v 0.370513 -0.358253 -0.125000
v 0.262260 -0.295753 0.125000
v 0.370513 -0.358253 0.125000
vt 0.000000 0.875000
vt 0.000000 0.812500
vt 0.125000 0.875000
vt 0.125000 0.812500
vt 0.000000 0.875000
vt 0.000000 0.812500
vt 0.125000 0.875000
vt 0.125000 0.812500
vt 0.000000 1.000000
vt 0.125000 1.000000
vt 0.250000 1.000000
vt 0.250000 0.875000
vt 0.375000 1.000000
vt 0.375000 0.875000
vt 0.250000 0.875000
vt 0.250000 0.812500
vt 0.250000 0.875000
vt 0.250000 0.812500
vn 0.5000 0.8660 0.0000
vn -0.5000 -0.8660 0.0000
vn -0.8660 0.5000 0.0000
vn 0.8660 -0.5000 0.0000
vn 0.0000 -0.0000 1.0000
vn 0.0000 0.0000 -1.0000
usemtl m_0
s 1
f 33/59/18 34/60/18 35/61/18
f 34/60/18 36/62/18 35/61/18
f 37/63/19 38/64/19 39/65/19
f 38/64/19 40/66/19 39/65/19
f 37/63/20 39/67/20 35/61/20
f 39/67/20 33/68/20 35/61/20
f 40/69/21 38/70/21 34/71/21
f 38/70/21 36/72/21 34/71/21
f 39/65/22 40/66/22 33/73/22
f 40/66/22 34/74/22 33/73/22
f 35/61/23 36/62/23 37/75/23
f 36/62/23 38/76/23 37/75/23
o cube.004
v -0.061378 0.143690 0.093750
v 0.371635 -0.106310 0.093750
v -0.061378 0.143690 -0.093750
v 0.371635 -0.106310 -0.093750
v -0.155128 -0.018690 -0.093750
v 0.277885 -0.268690 -0.093750
v -0.155128 -0.018690 0.093750
v 0.277885 -0.268690 0.093750
vt 0.000000 0.812500
vt 0.000000 0.562500
vt 0.093750 0.812500
vt 0.093750 0.562500
vt 0.000000 0.812500
vt 0.000000 0.562500
vt 0.093750 0.812500
vt 0.093750 0.562500
vt 0.187500 0.812500
vt 0.000000 1.000000
vt 0.187500 1.000000
vt 0.187500 1.000000
vt 0.000000 1.000000
vt 0.187500 0.812500
vt 0.000000 0.812500
vt 0.187500 0.812500
vt 0.187500 0.562500
vt 0.187500 0.812500
vt 0.187500 0.562500
vn 0.5000 0.8660 -0.0000
vn -0.5000 -0.8660 0.0000
vn -0.8660 0.5000 0.0000
vn 0.8660 -0.5000 0.0000
vn 0.0000 -0.0000 1.0000
vn -0.0000 0.0000 -1.0000
usemtl m_0
s 1
f 41/77/24 42/78/24 43/79/24
f 42/78/24 44/80/24 43/79/24
f 45/81/25 46/82/25 47/83/25
f 46/82/25 48/84/25 47/83/25
f 45/81/26 47/85/26 43/86/26
f 47/85/26 41/87/26 43/86/26
f 48/88/27 46/89/27 42/90/27
f 46/89/27 44/91/27 42/90/27
f 47/83/28 48/84/28 41/92/28
f 48/84/28 42/93/28 41/92/28
f 43/79/29 44/80/29 45/94/29
f 44/80/29 46/95/29 45/94/29
o cube.005
v -0.317558 0.075089 0.000024
v -0.255418 0.039213 0.173251
v -0.223808 0.237469 0.000024
v -0.161668 0.201592 0.173251
vt 0.281250 0.500000
vt 0.281250 0.593750
vt 0.187500 0.500000
vt 0.187500 0.593750
vn -0.8001 0.4619 0.3827
usemtl m_0
s 1
f 49/96/30 50/97/30 51/98/30
f 50/97/30 52/99/30 51/98/30
